<svg xmlns="http://www.w3.org/2000/svg" viewBox="0 0 1280 720" width="1280" height="720">
  
  <g id="slide-background">
    <rect width="1280" height="720" fill="#F5F2EB" />
    <rect x="40" y="40" width="1200" height="640" fill="none" stroke="#D5D0C4" stroke-width="1" />
    
    <path d="M 60 40 H 40 V 60" stroke="#8C2D19" stroke-width="3" fill="none" />
    <path d="M 1220 40 H 1240 V 60" stroke="#8C2D19" stroke-width="3" fill="none" />
    <path d="M 60 680 H 40 V 660" stroke="#8C2D19" stroke-width="3" fill="none" />
    <path d="M 1220 680 H 1240 V 660" stroke="#8C2D19" stroke-width="3" fill="none" />
  </g>

  
  <g id="chrome-seal">
    <rect x="60" y="60" width="30" height="30" fill="#8C2D19" />
    <text x="75" y="81" font-family="Georgia, SimSun, serif" font-size="14" fill="#F5F2EB" text-anchor="middle" font-weight="bold">弈</text>
  </g>

  
  <g id="title-block">
    
    <text x="120" y="210" font-family="Microsoft YaHei, PingFang SC, Arial, sans-serif" font-size="26" font-weight="bold" fill="#8C2D19" letter-spacing="2">公管学院棋艺大赛总结报告</text>
    
    
    <text x="120" y="290" font-family="Georgia, SimSun, serif" font-size="36" font-weight="bold" fill="#2C3E50" letter-spacing="4">弈林争霸</text>
    <text x="120" y="350" font-family="Georgia, SimSun, serif" font-size="36" font-weight="bold" fill="#8C2D19" letter-spacing="4">智绘青春</text>
    
    
    <line x1="120" y1="390" x2="360" y2="390" stroke="#D4AF37" stroke-width="4" />
  </g>

  
  <g id="hero-visual">
    
    <path fill="#FFFFFF" stroke="#D5D0C4" stroke-width="1" d="M718,120 H1182 A8,8 0 0 1 1190,128 V592 A8,8 0 0 1 1182,600 H718 A8,8 0 0 1 710,592 V128 A8,8 0 0 1 718,120 Z" />
    
    
    <circle cx="950" cy="360" r="210" fill="none" stroke="#D4AF37" stroke-width="1" stroke-dasharray="8 6" />
    
    
    
    <line x1="790" y1="200" x2="1110" y2="200" stroke="#D5D0C4" stroke-width="1.5" />
    <line x1="790" y1="240" x2="1110" y2="240" stroke="#D5D0C4" stroke-width="1.5" />
    <line x1="790" y1="280" x2="1110" y2="280" stroke="#D5D0C4" stroke-width="1.5" />
    <line x1="790" y1="320" x2="1110" y2="320" stroke="#D5D0C4" stroke-width="1.5" />
    <line x1="790" y1="360" x2="1110" y2="360" stroke="#D5D0C4" stroke-width="1.5" />
    <line x1="790" y1="400" x2="1110" y2="400" stroke="#D5D0C4" stroke-width="1.5" />
    <line x1="790" y1="440" x2="1110" y2="440" stroke="#D5D0C4" stroke-width="1.5" />
    <line x1="790" y1="480" x2="1110" y2="480" stroke="#D5D0C4" stroke-width="1.5" />
    <line x1="790" y1="520" x2="1110" y2="520" stroke="#D5D0C4" stroke-width="1.5" />
    
    
    <line x1="790" y1="200" x2="790" y2="520" stroke="#D5D0C4" stroke-width="1.5" />
    <line x1="830" y1="200" x2="830" y2="520" stroke="#D5D0C4" stroke-width="1.5" />
    <line x1="870" y1="200" x2="870" y2="520" stroke="#D5D0C4" stroke-width="1.5" />
    <line x1="910" y1="200" x2="910" y2="520" stroke="#D5D0C4" stroke-width="1.5" />
    <line x1="950" y1="200" x2="950" y2="520" stroke="#D5D0C4" stroke-width="1.5" />
    <line x1="990" y1="200" x2="990" y2="520" stroke="#D5D0C4" stroke-width="1.5" />
    <line x1="1030" y1="200" x2="1030" y2="520" stroke="#D5D0C4" stroke-width="1.5" />
    <line x1="1070" y1="200" x2="1070" y2="520" stroke="#D5D0C4" stroke-width="1.5" />
    <line x1="1110" y1="200" x2="1110" y2="520" stroke="#D5D0C4" stroke-width="1.5" />

    
    <circle cx="870" cy="280" r="4" fill="#2C3E50" />
    <circle cx="1030" cy="280" r="4" fill="#2C3E50" />
    <circle cx="950" cy="360" r="4" fill="#2C3E50" />
    <circle cx="870" cy="440" r="4" fill="#2C3E50" />
    <circle cx="1030" cy="440" r="4" fill="#2C3E50" />

    
    
    <circle cx="950" cy="360" r="16" fill="#2C3E50" />
    <circle cx="910" cy="360" r="16" fill="#2C3E50" />
    <circle cx="990" cy="320" r="16" fill="#2C3E50" />
    
    
    <circle cx="950" cy="320" r="16" fill="#FFFFFF" stroke="#2C3E50" stroke-width="2" />
    <circle cx="950" cy="400" r="16" fill="#FFFFFF" stroke="#2C3E50" stroke-width="2" />
    <circle cx="910" cy="320" r="16" fill="#FFFFFF" stroke="#2C3E50" stroke-width="2" />
  </g>

  
  <g id="key-message">
    
    <g data-icon="tabler-outline/users" x="120" y="442" width="22" height="22" fill="#8C2D19" />
    <text x="155" y="460" font-family="Microsoft YaHei, PingFang SC, Arial, sans-serif" font-size="20" font-weight="bold" fill="#2C3E50">主办单位</text>
    <text x="260" y="460" font-family="Microsoft YaHei, PingFang SC, Arial, sans-serif" font-size="20" fill="#7F8C8D">公管学院团总支 / 学生会社团部</text>
    
    
    <g data-icon="tabler-outline/presentation" x="120" y="492" width="22" height="22" fill="#8C2D19" />
    <text x="155" y="510" font-family="Microsoft YaHei, PingFang SC, Arial, sans-serif" font-size="20" font-weight="bold" fill="#2C3E50">协办单位</text>
    <text x="260" y="510" font-family="Microsoft YaHei, PingFang SC, Arial, sans-serif" font-size="20" fill="#7F8C8D">公管学院棋乐轩棋社</text>
  </g>
</svg>