<svg xmlns="http://www.w3.org/2000/svg" viewBox="0 0 1280 720" width="1280" height="720">
    
    <g id="background-chrome">
        
        <rect width="1280" height="720" fill="#F5F2EB" />
        
        
        <rect x="20" y="20" width="1240" height="680" fill="none" stroke="#D5D0C4" stroke-width="1" />
        <rect x="26" y="26" width="1228" height="668" fill="none" stroke="#D4AF37" stroke-width="0.5" />
        
        
        <rect x="1160" y="60" width="40" height="40" fill="none" stroke="#8C2D19" stroke-width="2" />
        <text x="1180" y="86" font-family="SimSun, serif" font-size="20" font-weight="bold" fill="#8C2D19" text-anchor="middle">弈</text>
        
        
        <text x="80" y="675" font-family="Georgia, serif" font-size="14" fill="#7F8C8D">PAGE 03</text>
        <text x="1200" y="675" font-family="Microsoft YaHei, PingFang SC, Arial, sans-serif" font-size="14" fill="#7F8C8D" text-anchor="end">公管学院棋类迎新赛 · 基本信息</text>
    </g>

    
    <g id="title-block">
        
        <text x="80" y="85" font-family="Microsoft YaHei, PingFang SC, Arial, sans-serif" font-size="36" font-weight="bold" fill="#8C2D19">活动基本信息与组织架构</text>
        
        <text x="80" y="118" font-family="Georgia, serif" font-size="14" font-weight="bold" fill="#7F8C8D" letter-spacing="1.5">EVENT DETAILS &amp; ORGANIZATIONAL STRUCTURE</text>
        
        
        <line x1="80" y1="135" x2="1200" y2="135" stroke="#D4AF37" stroke-width="1.5" />
        <line x1="80" y1="135" x2="320" y2="135" stroke="#8C2D19" stroke-width="3" />
    </g>

    
    
    
    <g id="content-card-1">
        
        <path fill="#D5D0C4" d="M94,186 H328 A8,8 0 0 1 336,194 V618 A8,8 0 0 1 328,626 H94 A8,8 0 0 1 86,618 V194 A8,8 0 0 1 94,186 Z" />
        
        <path fill="#FFFFFF" stroke="#D5D0C4" stroke-width="1.5" d="M88,180 H322 A8,8 0 0 1 330,188 V612 A8,8 0 0 1 322,620 H88 A8,8 0 0 1 80,612 V188 A8,8 0 0 1 88,180 Z" />
        
        <line x1="80" y1="270" x2="330" y2="270" stroke="#D5D0C4" stroke-width="1.5" />
        
        
        <path fill="#8C2D19" d="M187,202 H223 A4,4 0 0 1 227,206 V242 A4,4 0 0 1 223,246 H187 A4,4 0 0 1 183,242 V206 A4,4 0 0 1 187,202 Z" />
        <text x="205" y="232" font-family="SimSun, serif" font-size="24" font-weight="bold" fill="#F5F2EB" text-anchor="middle">时</text>
        
        
        <text x="205" y="295" font-family="Microsoft YaHei, PingFang SC, Arial, sans-serif" font-size="13" font-weight="bold" fill="#7F8C8D" text-anchor="middle" letter-spacing="2">DATE &amp; TIME</text>
        
        
        <g data-icon="tabler-outline/activity" x="187" y="315" width="36" height="36" fill="#8C2D19" />
        
        
        <text x="205" y="390" font-family="Microsoft YaHei, PingFang SC, Arial, sans-serif" font-size="18" font-weight="bold" fill="#2C3E50" text-anchor="middle">2023年11月24日</text>
        <text x="205" y="420" font-family="Microsoft YaHei, PingFang SC, Arial, sans-serif" font-size="22" font-weight="bold" fill="#8C2D19" text-anchor="middle">13:00 开始</text>
        
        
        <line x1="110" y1="460" x2="300" y2="460" stroke="#D5D0C4" stroke-dasharray="4 4" stroke-width="1.5" />
        
        
        <text x="205" y="500" font-family="Microsoft YaHei, PingFang SC, Arial, sans-serif" font-size="13" fill="#7F8C8D" text-anchor="middle">· 下午1点准时开赛 ·</text>
        <text x="205" y="530" font-family="Microsoft YaHei, PingFang SC, Arial, sans-serif" font-size="13" fill="#7F8C8D" text-anchor="middle">· 请参赛选手提前签到 ·</text>
    </g>

    
    <g id="content-card-2">
        
        <path fill="#D5D0C4" d="M384,186 H618 A8,8 0 0 1 626,194 V618 A8,8 0 0 1 618,626 H384 A8,8 0 0 1 376,618 V194 A8,8 0 0 1 384,186 Z" />
        
        <path fill="#FFFFFF" stroke="#D5D0C4" stroke-width="1.5" d="M378,180 H612 A8,8 0 0 1 620,188 V612 A8,8 0 0 1 612,620 H378 A8,8 0 0 1 370,612 V188 A8,8 0 0 1 378,180 Z" />
        
        <line x1="370" y1="270" x2="620" y2="270" stroke="#D5D0C4" stroke-width="1.5" />
        
        
        <path fill="#8C2D19" d="M477,202 H513 A4,4 0 0 1 517,206 V242 A4,4 0 0 1 513,246 H477 A4,4 0 0 1 473,242 V206 A4,4 0 0 1 477,202 Z" />
        <text x="495" y="232" font-family="SimSun, serif" font-size="24" font-weight="bold" fill="#F5F2EB" text-anchor="middle">地</text>
        
        
        <text x="495" y="295" font-family="Microsoft YaHei, PingFang SC, Arial, sans-serif" font-size="13" font-weight="bold" fill="#7F8C8D" text-anchor="middle" letter-spacing="2">VENUE</text>
        
        
        <g data-icon="tabler-outline/target" x="477" y="315" width="36" height="36" fill="#8C2D19" />
        
        
        <text x="495" y="390" font-family="Microsoft YaHei, PingFang SC, Arial, sans-serif" font-size="18" font-weight="bold" fill="#2C3E50" text-anchor="middle">B301 教室</text>
        <text x="495" y="420" font-family="Microsoft YaHei, PingFang SC, Arial, sans-serif" font-size="16" fill="#7F8C8D" text-anchor="middle">公共管理学院大楼</text>
        
        
        <line x1="400" y1="460" x2="590" y2="460" stroke="#D5D0C4" stroke-dasharray="4 4" stroke-width="1.5" />
        
        
        <text x="495" y="500" font-family="Microsoft YaHei, PingFang SC, Arial, sans-serif" font-size="13" fill="#7F8C8D" text-anchor="middle">· 现场备有专业棋具 ·</text>
        <text x="495" y="530" font-family="Microsoft YaHei, PingFang SC, Arial, sans-serif" font-size="13" fill="#7F8C8D" text-anchor="middle">· 设有专门观众观战区 ·</text>
    </g>

    
    <g id="content-card-3">
        
        <path fill="#D5D0C4" d="M674,186 H908 A8,8 0 0 1 916,194 V618 A8,8 0 0 1 908,626 H674 A8,8 0 0 1 666,618 V194 A8,8 0 0 1 674,186 Z" />
        
        <path fill="#FFFFFF" stroke="#D5D0C4" stroke-width="1.5" d="M668,180 H902 A8,8 0 0 1 910,188 V612 A8,8 0 0 1 902,620 H668 A8,8 0 0 1 660,612 V188 A8,8 0 0 1 668,180 Z" />
        
        <line x1="660" y1="270" x2="910" y2="270" stroke="#D5D0C4" stroke-width="1.5" />
        
        
        <path fill="#8C2D19" d="M767,202 H803 A4,4 0 0 1 807,206 V242 A4,4 0 0 1 803,246 H767 A4,4 0 0 1 763,242 V206 A4,4 0 0 1 767,202 Z" />
        <text x="785" y="232" font-family="SimSun, serif" font-size="24" font-weight="bold" fill="#F5F2EB" text-anchor="middle">主</text>
        
        
        <text x="785" y="295" font-family="Microsoft YaHei, PingFang SC, Arial, sans-serif" font-size="13" font-weight="bold" fill="#7F8C8D" text-anchor="middle" letter-spacing="2">ORGANIZER</text>
        
        
        <g data-icon="tabler-outline/users" x="767" y="315" width="36" height="36" fill="#8C2D19" />
        
        
        <text x="785" y="380" font-family="Microsoft YaHei, PingFang SC, Arial, sans-serif" font-size="16" font-weight="bold" fill="#2C3E50" text-anchor="middle">公管学院团总支</text>
        <text x="785" y="415" font-family="Microsoft YaHei, PingFang SC, Arial, sans-serif" font-size="16" font-weight="bold" fill="#2C3E50" text-anchor="middle">公管学院学生会社团部</text>
        
        
        <line x1="690" y1="460" x2="880" y2="460" stroke="#D5D0C4" stroke-dasharray="4 4" stroke-width="1.5" />
        
        
        <text x="785" y="500" font-family="Microsoft YaHei, PingFang SC, Arial, sans-serif" font-size="13" fill="#7F8C8D" text-anchor="middle">· 负责活动总体统筹策划 ·</text>
        <text x="785" y="530" font-family="Microsoft YaHei, PingFang SC, Arial, sans-serif" font-size="13" fill="#7F8C8D" text-anchor="middle">· 保障赛程顺利高效推进 ·</text>
    </g>

    
    <g id="content-card-4">
        
        <path fill="#D5D0C4" d="M964,186 H1198 A8,8 0 0 1 1206,194 V618 A8,8 0 0 1 1198,626 H964 A8,8 0 0 1 956,618 V194 A8,8 0 0 1 964,186 Z" />
        
        <path fill="#FFFFFF" stroke="#D5D0C4" stroke-width="1.5" d="M958,180 H1192 A8,8 0 0 1 1200,188 V612 A8,8 0 0 1 1192,620 H958 A8,8 0 0 1 950,612 V188 A8,8 0 0 1 958,180 Z" />
        
        <line x1="950" y1="270" x2="1200" y2="270" stroke="#D5D0C4" stroke-width="1.5" />
        
        
        <path fill="#8C2D19" d="M1057,202 H1093 A4,4 0 0 1 1097,206 V242 A4,4 0 0 1 1093,246 H1057 A4,4 0 0 1 1053,242 V206 A4,4 0 0 1 1057,202 Z" />
        <text x="1075" y="232" font-family="SimSun, serif" font-size="24" font-weight="bold" fill="#F5F2EB" text-anchor="middle">协</text>
        
        
        <text x="1075" y="295" font-family="Microsoft YaHei, PingFang SC, Arial, sans-serif" font-size="13" font-weight="bold" fill="#7F8C8D" text-anchor="middle" letter-spacing="2">CO-ORGANIZER</text>
        
        
        <g data-icon="tabler-outline/presentation" x="1057" y="315" width="36" height="36" fill="#8C2D19" />
        
        
        <text x="1075" y="390" font-family="Microsoft YaHei, PingFang SC, Arial, sans-serif" font-size="18" font-weight="bold" fill="#2C3E50" text-anchor="middle">公管学院棋乐轩棋社</text>
        <text x="1075" y="420" font-family="Microsoft YaHei, PingFang SC, Arial, sans-serif" font-size="16" fill="#7F8C8D" text-anchor="middle">院级棋类专业社团</text>
        
        
        <line x1="980" y1="460" x2="1170" y2="460" stroke="#D5D0C4" stroke-dasharray="4 4" stroke-width="1.5" />
        
        
        <text x="1075" y="500" font-family="Microsoft YaHei, PingFang SC, Arial, sans-serif" font-size="13" fill="#7F8C8D" text-anchor="middle">· 提供专业裁判与规则支持 ·</text>
        <text x="1075" y="530" font-family="Microsoft YaHei, PingFang SC, Arial, sans-serif" font-size="13" fill="#7F8C8D" text-anchor="middle">· 协助棋具准备与现场协调 ·</text>
    </g>
</svg>