<svg xmlns="http://www.w3.org/2000/svg" viewBox="0 0 1280 720" width="1280" height="720">
  <g id="background-chrome">
    <rect x="0" y="0" width="1280" height="720" fill="#070A12" />
    <path fill="none" stroke="#2A3446" stroke-width="1" d="M64,36 H1216 A28,28 0 0 1 1244,64 V656 A28,28 0 0 1 1216,684 H64 A28,28 0 0 1 36,656 V64 A28,28 0 0 1 64,36 Z" />
    <circle cx="640" cy="382" r="92" fill="none" stroke="#2A3446" stroke-width="1" />
    <circle cx="640" cy="382" r="170" fill="none" stroke="#2A3446" stroke-width="1" stroke-dasharray="8 10" />
    <circle cx="640" cy="382" r="255" fill="none" stroke="#2A3446" stroke-width="1" stroke-dasharray="3 8" />
    <circle cx="640" cy="382" r="340" fill="none" stroke="#2A3446" stroke-width="1" />
    <line x1="640" y1="104" x2="640" y2="618" stroke="#2A3446" stroke-width="1" stroke-dasharray="2 8" />
    <line x1="252" y1="382" x2="1028" y2="382" stroke="#2A3446" stroke-width="1" stroke-dasharray="2 8" />
    <rect x="60" y="626" width="1120" height="1" fill="#2A3446" />
  </g>

  <g id="title-block">
    <text x="70" y="72" font-family="Microsoft YaHei, PingFang SC, Arial, sans-serif" font-size="14" fill="#00D1B2" letter-spacing="3">PERFORMANCE ENGINE</text>
    <text x="70" y="116" font-family="Microsoft YaHei, PingFang SC, Arial, sans-serif" font-size="36" font-weight="700" fill="#F7F8FA">A19：把速度放进每一次操作</text>
    <text x="70" y="150" font-family="Microsoft YaHei, PingFang SC, Arial, sans-serif" font-size="20" fill="#9AA4B2">新一代 A19 芯片 · 面向高性能、多任务与智能体验 · 为影像、游戏和系统响应提供底层动力</text>
    <path fill="#111827" stroke="#2A3446" stroke-width="1" d="M1039,68 H1141 A24,24 0 0 1 1165,92 V92 A24,24 0 0 1 1141,116 H1039 A24,24 0 0 1 1015,92 V92 A24,24 0 0 1 1039,68 Z" />
    <text x="1090" y="99" text-anchor="middle" font-family="Microsoft YaHei, PingFang SC, Arial, sans-serif" font-size="20" font-weight="700" fill="#4F7CFF">A19 CORE</text>
  </g>

  <g id="chart-area">
    <line x1="435" y1="250" x2="568" y2="338" stroke="#4F7CFF" stroke-width="2" />
    <line x1="845" y1="250" x2="712" y2="338" stroke="#00D1B2" stroke-width="2" />
    <line x1="435" y1="520" x2="568" y2="432" stroke="#FF6A3D" stroke-width="2" />
    <line x1="845" y1="520" x2="712" y2="432" stroke="#4F7CFF" stroke-width="2" />
    <circle cx="568" cy="338" r="7" fill="#4F7CFF" />
    <circle cx="712" cy="338" r="7" fill="#00D1B2" />
    <circle cx="568" cy="432" r="7" fill="#FF6A3D" />
    <circle cx="712" cy="432" r="7" fill="#4F7CFF" />

    <path fill="#111827" stroke="#4F7CFF" stroke-width="2" d="M572,292 H708 A24,24 0 0 1 732,316 V452 A24,24 0 0 1 708,476 H572 A24,24 0 0 1 548,452 V316 A24,24 0 0 1 572,292 Z" />
    <path fill="#070A12" stroke="#2A3446" stroke-width="2" d="M593,319 H687 A18,18 0 0 1 705,337 V431 A18,18 0 0 1 687,449 H593 A18,18 0 0 1 575,431 V337 A18,18 0 0 1 593,319 Z" />
    <path fill="#111827" stroke="#00D1B2" stroke-width="2" d="M611,343 H669 A12,12 0 0 1 681,355 V413 A12,12 0 0 1 669,425 H611 A12,12 0 0 1 599,413 V355 A12,12 0 0 1 611,343 Z" />
    <text x="640" y="374" text-anchor="middle" font-family="Microsoft YaHei, PingFang SC, Arial, sans-serif" font-size="36" font-weight="700" fill="#F7F8FA">A19</text>
    <text font-family="Microsoft YaHei, PingFang SC, Arial, sans-serif" text-anchor="middle" font-size="14" fill="#9AA4B2" x="640" y="399">SYSTEM</text><text font-family="Microsoft YaHei, PingFang SC, Arial, sans-serif" text-anchor="middle" font-size="14" fill="#9AA4B2" x="640" y="415">ENGINE</text><line x1="548" y1="315" x2="522" y2="315" stroke="#2A3446" stroke-width="2" />
    <line x1="548" y1="345" x2="522" y2="345" stroke="#2A3446" stroke-width="2" />
    <line x1="548" y1="375" x2="522" y2="375" stroke="#2A3446" stroke-width="2" />
    <line x1="548" y1="405" x2="522" y2="405" stroke="#2A3446" stroke-width="2" />
    <line x1="548" y1="435" x2="522" y2="435" stroke="#2A3446" stroke-width="2" />
    <line x1="732" y1="315" x2="758" y2="315" stroke="#2A3446" stroke-width="2" />
    <line x1="732" y1="345" x2="758" y2="345" stroke="#2A3446" stroke-width="2" />
    <line x1="732" y1="375" x2="758" y2="375" stroke="#2A3446" stroke-width="2" />
    <line x1="732" y1="405" x2="758" y2="405" stroke="#2A3446" stroke-width="2" />
    <line x1="732" y1="435" x2="758" y2="435" stroke="#2A3446" stroke-width="2" />
    <line x1="575" y1="292" x2="575" y2="266" stroke="#2A3446" stroke-width="2" />
    <line x1="610" y1="292" x2="610" y2="266" stroke="#2A3446" stroke-width="2" />
    <line x1="645" y1="292" x2="645" y2="266" stroke="#2A3446" stroke-width="2" />
    <line x1="680" y1="292" x2="680" y2="266" stroke="#2A3446" stroke-width="2" />
    <line x1="575" y1="476" x2="575" y2="502" stroke="#2A3446" stroke-width="2" />
    <line x1="610" y1="476" x2="610" y2="502" stroke="#2A3446" stroke-width="2" />
    <line x1="645" y1="476" x2="645" y2="502" stroke="#2A3446" stroke-width="2" />
    <line x1="680" y1="476" x2="680" y2="502" stroke="#2A3446" stroke-width="2" />
  </g>

  <g id="content-card-1">
    <path fill="#111827" stroke="#2A3446" stroke-width="1" d="M102,190 H418 A22,22 0 0 1 440,212 V322 A22,22 0 0 1 418,344 H102 A22,22 0 0 1 80,322 V212 A22,22 0 0 1 102,190 Z" />
    <path fill="#070A12" stroke="#4F7CFF" stroke-width="2" d="M116,212 H134 A14,14 0 0 1 148,226 V244 A14,14 0 0 1 134,258 H116 A14,14 0 0 1 102,244 V226 A14,14 0 0 1 116,212 Z" />
    <g data-icon="phosphor-duotone/chart-bar" x="111" y="221" width="28" height="28" fill="#4F7CFF" />
    <text x="166" y="236" font-family="Microsoft YaHei, PingFang SC, Arial, sans-serif" font-size="26" font-weight="700" fill="#F7F8FA">性能</text>
    <text x="166" y="264" font-family="Microsoft YaHei, PingFang SC, Arial, sans-serif" font-size="14" fill="#4F7CFF">HIGH PERFORMANCE</text>
    <text x="102" y="296" font-family="Microsoft YaHei, PingFang SC, Arial, sans-serif" font-size="20" fill="#F7F8FA">高负载任务更快完成</text>
    <text x="102" y="324" font-family="Microsoft YaHei, PingFang SC, Arial, sans-serif" font-size="14" fill="#9AA4B2">应用启动、切换、编译与渲染响应提速</text>
  </g>

  <g id="content-card-2">
    <path fill="#111827" stroke="#2A3446" stroke-width="1" d="M862,190 H1178 A22,22 0 0 1 1200,212 V322 A22,22 0 0 1 1178,344 H862 A22,22 0 0 1 840,322 V212 A22,22 0 0 1 862,190 Z" />
    <path fill="#070A12" stroke="#00D1B2" stroke-width="2" d="M876,212 H894 A14,14 0 0 1 908,226 V244 A14,14 0 0 1 894,258 H876 A14,14 0 0 1 862,244 V226 A14,14 0 0 1 876,212 Z" />
    <g data-icon="phosphor-duotone/target" x="871" y="221" width="28" height="28" fill="#00D1B2" />
    <text x="926" y="236" font-family="Microsoft YaHei, PingFang SC, Arial, sans-serif" font-size="26" font-weight="700" fill="#F7F8FA">能效</text>
    <text x="926" y="264" font-family="Microsoft YaHei, PingFang SC, Arial, sans-serif" font-size="14" fill="#00D1B2">SUSTAINED EFFICIENCY</text>
    <text x="862" y="296" font-family="Microsoft YaHei, PingFang SC, Arial, sans-serif" font-size="20" fill="#F7F8FA">快与久同时在线</text>
    <text x="862" y="324" font-family="Microsoft YaHei, PingFang SC, Arial, sans-serif" font-size="14" fill="#9AA4B2">把性能释放控制在更稳定的功耗曲线内</text>
  </g>

  <g id="content-card-3">
    <path fill="#111827" stroke="#2A3446" stroke-width="1" d="M102,458 H418 A22,22 0 0 1 440,480 V590 A22,22 0 0 1 418,612 H102 A22,22 0 0 1 80,590 V480 A22,22 0 0 1 102,458 Z" />
    <path fill="#070A12" stroke="#FF6A3D" stroke-width="2" d="M116,480 H134 A14,14 0 0 1 148,494 V512 A14,14 0 0 1 134,526 H116 A14,14 0 0 1 102,512 V494 A14,14 0 0 1 116,480 Z" />
    <g data-icon="phosphor-duotone/presentation" x="111" y="489" width="28" height="28" fill="#FF6A3D" />
    <text x="166" y="504" font-family="Microsoft YaHei, PingFang SC, Arial, sans-serif" font-size="26" font-weight="700" fill="#F7F8FA">影像</text>
    <text x="166" y="532" font-family="Microsoft YaHei, PingFang SC, Arial, sans-serif" font-size="14" fill="#FF6A3D">IMAGE PIPELINE</text>
    <text x="102" y="564" font-family="Microsoft YaHei, PingFang SC, Arial, sans-serif" font-size="20" fill="#F7F8FA">每一帧都更从容</text>
    <text x="102" y="592" font-family="Microsoft YaHei, PingFang SC, Arial, sans-serif" font-size="14" fill="#9AA4B2">拍摄、处理与回看串联成更短等待链路</text>
  </g>

  <g id="content-card-4">
    <path fill="#111827" stroke="#2A3446" stroke-width="1" d="M862,458 H1178 A22,22 0 0 1 1200,480 V590 A22,22 0 0 1 1178,612 H862 A22,22 0 0 1 840,590 V480 A22,22 0 0 1 862,458 Z" />
    <path fill="#070A12" stroke="#4F7CFF" stroke-width="2" d="M876,480 H894 A14,14 0 0 1 908,494 V512 A14,14 0 0 1 894,526 H876 A14,14 0 0 1 862,512 V494 A14,14 0 0 1 876,480 Z" />
    <g data-icon="phosphor-duotone/bulb" x="871" y="489" width="28" height="28" fill="#4F7CFF" />
    <text x="926" y="504" font-family="Microsoft YaHei, PingFang SC, Arial, sans-serif" font-size="26" font-weight="700" fill="#F7F8FA">智能计算</text>
    <text x="926" y="532" font-family="Microsoft YaHei, PingFang SC, Arial, sans-serif" font-size="14" fill="#4F7CFF">ON-DEVICE INTELLIGENCE</text>
    <text x="862" y="564" font-family="Microsoft YaHei, PingFang SC, Arial, sans-serif" font-size="20" fill="#F7F8FA">把智能体验放在本机</text>
    <text x="862" y="592" font-family="Microsoft YaHei, PingFang SC, Arial, sans-serif" font-size="14" fill="#9AA4B2">多任务理解、预测与执行更贴近使用场景</text>
  </g>

  <g id="key-message">
    <path fill="#111827" stroke="#2A3446" stroke-width="1" d="M518,182 H762 A18,18 0 0 1 780,200 V222 A18,18 0 0 1 762,240 H518 A18,18 0 0 1 500,222 V200 A18,18 0 0 1 518,182 Z" />
    <text x="640" y="207" text-anchor="middle" font-family="Microsoft YaHei, PingFang SC, Arial, sans-serif" font-size="14" fill="#9AA4B2">用户感受到的不是芯片本身</text>
    <text x="640" y="231" text-anchor="middle" font-family="Microsoft YaHei, PingFang SC, Arial, sans-serif" font-size="20" font-weight="700" fill="#F7F8FA">而是快、稳、久</text>

    <path fill="#070A12" stroke="#4F7CFF" stroke-width="2" d="M554,536 H606 A24,24 0 0 1 630,560 V560 A24,24 0 0 1 606,584 H554 A24,24 0 0 1 530,560 V560 A24,24 0 0 1 554,536 Z" />
    <text x="580" y="567" text-anchor="middle" font-family="Microsoft YaHei, PingFang SC, Arial, sans-serif" font-size="20" font-weight="700" fill="#F7F8FA">快</text>
    <path fill="#070A12" stroke="#00D1B2" stroke-width="2" d="M664,536 H716 A24,24 0 0 1 740,560 V560 A24,24 0 0 1 716,584 H664 A24,24 0 0 1 640,560 V560 A24,24 0 0 1 664,536 Z" />
    <text x="690" y="567" text-anchor="middle" font-family="Microsoft YaHei, PingFang SC, Arial, sans-serif" font-size="20" font-weight="700" fill="#F7F8FA">稳</text>
    <path fill="#070A12" stroke="#FF6A3D" stroke-width="2" d="M609,590 H661 A24,24 0 0 1 685,614 V614 A24,24 0 0 1 661,638 H609 A24,24 0 0 1 585,614 V614 A24,24 0 0 1 609,590 Z" />
    <text x="635" y="621" text-anchor="middle" font-family="Microsoft YaHei, PingFang SC, Arial, sans-serif" font-size="20" font-weight="700" fill="#F7F8FA">久</text>
  </g>

  <g id="summary-bar">
    <path fill="#111827" stroke="#2A3446" stroke-width="1" d="M87,650 H1193 A17,17 0 0 1 1210,667 V667 A17,17 0 0 1 1193,684 H87 A17,17 0 0 1 70,667 V667 A17,17 0 0 1 87,650 Z" />
    <circle cx="96" cy="667" r="6" fill="#00D1B2" />
    <text x="116" y="673" font-family="Microsoft YaHei, PingFang SC, Arial, sans-serif" font-size="14" fill="#9AA4B2">A19 作为整机体验发动机：将底层算力转化为影像处理、游戏表现、系统响应与智能体验的连续升级。</text>
    <g data-icon="phosphor-duotone/arrow-right" x="1164" y="657" width="20" height="20" fill="#4F7CFF" />
  </g>
</svg>